<?xml version="1.0" standalone="no"?>
<!DOCTYPE svg PUBLIC "-//W3C//DTD SVG 20010904//EN"
 "http://www.w3.org/TR/2001/REC-SVG-20010904/DTD/svg10.dtd">
<svg version="1.0"
    xmlns="http://www.w3.org/2000/svg" width="512.000000pt" height="512.000000pt" viewBox="0 0 512.000000 512.000000" preserveAspectRatio="xMidYMid meet">

    <g transform="translate(0.000000,512.000000) scale(0.100000,-0.100000)" fill="#3C911A" stroke="none">
        <path d="M1130 4190 l0 -400 1208 0 c1052 0 1216 -2 1267 -15 184 -47 294
-160 356 -365 l23 -75 6 -999 c3 -681 2 -1000 -5 -1003 -6 -2 -568 -2 -1250 0
-1358 3 -1262 -1 -1381 61 -59 31 -91 58 -137 119 -50 66 -76 144 -88 263 -12
132 -1 206 46 301 58 118 159 189 325 229 67 16 134 19 640 21 l565 4 400 399
400 400 -1130 0 c-759 0 -1160 -4 -1220 -11 -403 -49 -661 -240 -768 -569 -57
-175 -62 -236 -62 -730 0 -508 5 -561 68 -730 113 -299 335 -469 712 -542 110
-22 116 -22 1903 -25 l1793 -4 -4 1548 c-4 1684 0 1582 -58 1793 -24 87 -93
237 -140 307 -139 203 -366 338 -675 400 -82 16 -193 18 -1441 20 l-1353 4 0
-401z"/>
    </g>
</svg>
